<svg xmlns="http://www.w3.org/2000/svg" xmlns:xlink="http://www.w3.org/1999/xlink"><defs>
<clipPath id="clip0">
<rect width="12" height="7.4" fill="white" transform="translate(0 12) rotate(-90)"/>
</clipPath>
</defs><symbol id="icon-close" viewBox="0 0 24 25">
<path d="M1 23.7213L23 1M23 23.7213L1 1" stroke="#141517" stroke-opacity="0.2" stroke-linecap="round" stroke-linejoin="round"/>
</symbol><symbol id="icon-logo" viewBox="0 0 68 21">
<path d="M13.3636 0V20.0455H10.0705V5.82273L8.97273 7.20682L6.825 9.975L6.72954 10.0705L6.58636 9.975L4.43864 7.20682L3.34091 5.775V20.0455H0V0H3.34091L6.72954 4.29545L10.0705 0H13.3636Z" fill="#0AD9C6"/>
<path d="M8.30444 10.0705L8.20898 9.97501L8.30444 10.0705Z" fill="#0AD9C6"/>
<path d="M8.44787 9.97501L8.35241 10.0705H8.30469L8.44787 9.97501Z" fill="#0AD9C6"/>
<path d="M38.209 5.61453L29.082 12.316L31.1952 15.194L40.3222 8.49252L38.209 5.61453Z" fill="#0AD9C6"/>
<path d="M26.6672 3C22.8032 3 19.624 6.13028 19.624 10.0431C19.624 13.9071 22.7543 17.0863 26.6672 17.0863C30.5311 17.0863 33.7103 13.956 33.7103 10.0431C33.7103 6.17919 30.5311 3 26.6672 3ZM26.6672 13.2712C24.8575 13.2712 23.4391 11.8039 23.4391 10.0431C23.4391 8.23344 24.9064 6.81503 26.6672 6.81503C28.4279 6.81503 29.8953 8.28235 29.8953 10.0431C29.8953 11.8039 28.4279 13.2712 26.6672 13.2712Z" fill="#0AD9C6"/>
<path d="M43.6393 3C39.7754 3 36.5962 6.13028 36.5962 10.0431C36.5962 13.9071 39.7265 17.0863 43.6393 17.0863C47.5033 17.0863 50.6825 13.956 50.6825 10.0431C50.6336 6.17919 47.5033 3 43.6393 3ZM43.6393 13.2712C41.8296 13.2712 40.4112 11.8039 40.4112 10.0431C40.4112 8.23344 41.8785 6.81503 43.6393 6.81503C45.4001 6.81503 46.8674 8.28235 46.8674 10.0431C46.8674 11.8039 45.4001 13.2712 43.6393 13.2712Z" fill="#0AD9C6"/>
<path d="M67.5977 0.238647V20.2841H64.2568V9.87956L61.4409 7.20683L59.3409 5.15456V20.2841H56V0.238647H59.2932H59.3409L63.2545 4.0091L64.2568 4.96365V0.238647H67.5977Z" fill="#0AD9C6"/>
<rect x="37" y="3" width="6" height="4" fill="#0AD9C6"/>
</symbol><symbol id="icon-mail"><path d="M24.227 0H1.773C.768 0 0 .765 0 1.765v16.47C0 19.235.768 20 1.773 20h22.454C25.232 20 26 19.235 26 18.235V1.765C26 .765 25.232 0 24.227 0zm0 17l-4.668-4.647a.86.86 0 00-1.24 0 .85.85 0 000 1.235l4.667 4.647H3.014l4.668-4.647a.85.85 0 000-1.235.86.86 0 00-1.241 0L1.773 17V5.706l10.636 8c.177.118.355.176.532.176s.354-.058.532-.176l10.754-8zm0-15.235V3.47l-11.286 8.352L1.773 3.471V1.765z" fill="#0ad9c6"/></symbol><symbol id="icon-menu-arrow" viewBox="0 0 8 12">
<g clip-path="url(#clip0)">
<path fill-rule="evenodd" clip-rule="evenodd" d="M0 1.4L4.6 6L0 10.6L1.4 12L7.4 6L1.4 0L0 1.4Z" fill="#2C2E3F" fill-opacity="0.5"/>
</g>

</symbol><symbol id="icon-open" viewBox="0 0 24 14">
<path fill-rule="evenodd" clip-rule="evenodd" d="M0.75 14H23.25V13H0.75V14ZM0.75 7.74996H23.25V6.74996H0.75V7.74996ZM0.75 0.5V1.5H23.25V0.5H0.75Z" fill="black"/>
</symbol><symbol id="icon-phone"><path d="M1.456 6.624c-.084-1.198.182-2.378.885-3.327.61-.86 1.404-1.33 2.362-1.605.806-.24 1.334.054 1.567.95.332 1.34.806 2.68.978 4.092.055.62-.347 1.5-.782 1.952-1.09 1.073-.863 1.854-.036 3.478.257.524.664 1.43 1.459 2.628.827 1.207 1.265 1.855 2.328 1.305 1.18-.594 2.041-.212 2.932.747.604.693 1.269 1.288 1.873 1.98.872 1.03.833 1.74.15 2.467-1.229 1.34-3.258 1.783-4.768.886-.833-.489-1.664-1.128-2.325-1.874-2.914-3.32-5.016-7.182-6.281-11.54a10.989 10.989 0 01-.342-2.139z" stroke="#0ad9c6" stroke-miterlimit="10" stroke-width="2"/></symbol><symbol id="icon-play" viewBox="0 0 14 19">
<path fill-rule="evenodd" clip-rule="evenodd" d="M0.600098 0.399902L13.6001 9.4999L0.600098 18.5999V0.399902Z" fill="#070707"/>
</symbol></svg>